<svg xmlns="http://www.w3.org/2000/svg" width="24" height="24" viewBox="0 0 24 24" fill="#000000"><path fill="none" stroke="#000000" stroke-linecap="round" stroke-linejoin="round" stroke-width="1.5" d="M5.25 18a.75.75 0 1 1 1.5 0a.75.75 0 0 1-1.5 0m6 0a.75.75 0 1 1 1.5 0a.75.75 0 0 1-1.5 0m6 0a.75.75 0 1 1 1.5 0a.75.75 0 0 1-1.5 0m-12-6a.75.75 0 1 1 1.5 0a.75.75 0 0 1-1.5 0m6 0a.75.75 0 1 1 1.5 0a.75.75 0 0 1-1.5 0m6 0a.75.75 0 1 1 1.5 0a.75.75 0 0 1-1.5 0m-12-6a.75.75 0 1 1 1.5 0a.75.75 0 0 1-1.5 0m6 0a.75.75 0 1 1 1.5 0a.75.75 0 0 1-1.5 0m6 0a.75.75 0 1 1 1.5 0a.75.75 0 0 1-1.5 0"/></svg>